<?xml version="1.0" encoding="UTF-8" standalone="no"?><svg xmlns="http://www.w3.org/2000/svg" xmlns:xlink="http://www.w3.org/1999/xlink" contentStyleType="text/css" height="313px" preserveAspectRatio="none" style="width:1896px;height:313px;background:#FFFFFF;" version="1.1" viewBox="0 0 1896 313" width="1896px" zoomAndPan="magnify"><defs/><g><!--MD5=[4a65e84059005d12693a083370a06717]
entity client--><g id="elem_client"><ellipse cx="806.97" cy="14" fill="#F1F1F1" rx="8" ry="8" style="stroke:#181818;stroke-width:0.5;"/><path d="M806.97,22 L806.97,49 M793.97,30 L819.97,30 M806.97,49 L793.97,64 M806.97,49 L819.97,64 " fill="none" style="stroke:#181818;stroke-width:0.5;"/><text fill="#000000" font-family="sans-serif" font-size="14" lengthAdjust="spacing" textLength="37" x="788.47" y="78.4951">client</text></g><!--MD5=[4541fb81c80c07473fe4b07432ef0971]
entity app--><g id="elem_app"><rect fill="#F1F1F1" height="36.2969" rx="2.5" ry="2.5" style="stroke:#181818;stroke-width:0.5;" width="46" x="618.97" y="158.5"/><text fill="#000000" font-family="sans-serif" font-size="14" lengthAdjust="spacing" textLength="26" x="628.97" y="181.4951">app</text></g><!--MD5=[391dc8f9cc40b99dc7cc8481160b2a52]
entity criar_usuario--><g id="elem_criar_usuario"><rect fill="#F1F1F1" height="36.2969" rx="2.5" ry="2.5" style="stroke:#181818;stroke-width:0.5;" width="162" x="284.97" y="271.5"/><text fill="#000000" font-family="sans-serif" font-size="14" lengthAdjust="spacing" textLength="142" x="294.97" y="294.4951">cadastrar usuario (1)</text></g><!--MD5=[b83d22147ae846fc202b9f45501bba6d]
entity aluguel_veiculo--><g id="elem_aluguel_veiculo"><rect fill="#F1F1F1" height="36.2969" rx="2.5" ry="2.5" style="stroke:#181818;stroke-width:0.5;" width="137" x="1035.47" y="271.5"/><text fill="#000000" font-family="sans-serif" font-size="14" lengthAdjust="spacing" textLength="117" x="1045.47" y="294.4951">alugar veiculo (2)</text></g><!--MD5=[e5f84f83eb3875a15e3842a3b642dfc2]
link client to app--><g id="link_client_app"><path d="M796.7,81.87 C790.63,98.03 781.42,116.05 767.97,128.5 C740.54,153.88 698.16,165.89 670.25,171.34 " fill="none" id="client-to-app" style="stroke:#181818;stroke-width:1.0;"/><polygon fill="#181818" points="665.21,172.28,674.7962,174.5394,670.1231,171.3517,673.3108,166.6785,665.21,172.28" style="stroke:#181818;stroke-width:1.0;"/><text fill="#000000" font-family="sans-serif" font-size="13" lengthAdjust="spacing" textLength="123" x="780.97" y="124.5669">1:escolher ação (1)</text></g><!--MD5=[e5f84f83eb3875a15e3842a3b642dfc2]
link client to app--><g id="link_client_app"><path d="M788.33,45.31 C751.57,48.04 670.24,59.91 634.97,111.5 C626.73,123.56 628.72,139.98 632.65,153.17 " fill="none" id="client-to-app-1" style="stroke:#181818;stroke-width:1.0;"/><polygon fill="#181818" points="634.3,158.23,635.293,148.4313,632.7403,153.4795,627.6922,150.9268,634.3,158.23" style="stroke:#181818;stroke-width:1.0;"/><text fill="#000000" font-family="sans-serif" font-size="13" lengthAdjust="spacing" textLength="123" x="635.97" y="124.5669">6:escolher ação (2)</text></g><!--MD5=[ab13b2962306adf3526ad2ec3e317e44]
link app to criar_usuario--><g id="link_app_criar_usuario"><path d="M618.59,191.19 C590.31,207.61 544.23,233.89 525.97,241.5 C498.93,252.77 468.26,262.48 441.06,270.09 " fill="none" id="app-to-criar_usuario" style="stroke:#181818;stroke-width:1.0;"/><polygon fill="#181818" points="436.02,271.49,445.7638,272.9248,440.8362,270.1466,443.6144,265.219,436.02,271.49" style="stroke:#181818;stroke-width:1.0;"/><text fill="#000000" font-family="sans-serif" font-size="13" lengthAdjust="spacing" textLength="108" x="558.97" y="237.5669">2:chamar função</text></g><!--MD5=[91d38c270430792a60be527adfff2ec2]
link criar_usuario to app--><g id="link_criar_usuario_app"><path d="M367.17,271.46 C369.15,256.8 374.35,236.24 387.97,224.5 C404.99,209.83 550.96,189.33 613.61,181.12 " fill="none" id="criar_usuario-to-app" style="stroke:#181818;stroke-width:1.0;"/><polygon fill="#181818" points="618.69,180.45,609.2424,177.6674,613.7334,181.1071,610.2937,185.598,618.69,180.45" style="stroke:#181818;stroke-width:1.0;"/><text fill="#000000" font-family="sans-serif" font-size="13" lengthAdjust="spacing" textLength="128" x="388.97" y="237.5669">5:armazenar cliente</text></g><!--MD5=[4a2399d513087a8b62c1f4b5cb95d42c]
link criar_usuario to client--><g id="link_criar_usuario_client"><path d="M284.86,281.39 C176.73,268.8 6,236.15 69.97,158.5 C163.06,45.5 666.87,43.18 783.06,44.18 " fill="none" id="criar_usuario-to-client" style="stroke:#181818;stroke-width:1.0;"/><polygon fill="#181818" points="788.29,44.23,779.3246,40.153,783.2902,44.1871,779.256,48.1527,788.29,44.23" style="stroke:#181818;stroke-width:1.0;"/><text fill="#000000" font-family="sans-serif" font-size="13" lengthAdjust="spacing" textLength="222" x="70.97" y="181.0669">3:solicitação de parâmetro (nome)</text></g><!--MD5=[1b9ccfd76415c7ce185c1f94efe40f13]
link client to criar_usuario--><g id="link_client_criar_usuario"><path d="M788.12,46.51 C730.13,53.44 550.86,80.29 427.97,158.5 C394.78,179.62 383.86,188.08 368.97,224.5 C363.63,237.56 362.84,253.4 363.41,266.05 " fill="none" id="client-to-criar_usuario" style="stroke:#181818;stroke-width:1.0;"/><polygon fill="#181818" points="363.73,271.26,367.1822,262.036,363.4297,266.269,359.1967,262.5165,363.73,271.26" style="stroke:#181818;stroke-width:1.0;"/><text fill="#000000" font-family="sans-serif" font-size="13" lengthAdjust="spacing" textLength="171" x="428.97" y="181.0669">4:passagem de parâmetro</text></g><!--MD5=[e07063b3e9e32c40a1a285555198e2c3]
link app to aluguel_veiculo--><g id="link_app_aluguel_veiculo"><path d="M655.23,194.56 C668,209.64 688.77,230.86 711.97,241.5 C766.98,266.73 932.62,279.52 1030.09,285.02 " fill="none" id="app-to-aluguel_veiculo" style="stroke:#181818;stroke-width:1.0;"/><polygon fill="#181818" points="1035.26,285.31,1026.4901,280.828,1030.2674,285.039,1026.0564,288.8163,1035.26,285.31" style="stroke:#181818;stroke-width:1.0;"/><text fill="#000000" font-family="sans-serif" font-size="13" lengthAdjust="spacing" textLength="108" x="712.97" y="237.5669">7:chamar função</text></g><!--MD5=[49d7f566e86c89b09720ac727d412371]
link aluguel_veiculo to app--><g id="link_aluguel_veiculo_app"><path d="M1035.27,279.82 C986.19,272.5 919.01,260.18 861.97,241.5 C845.15,235.99 842.62,230.49 825.97,224.5 C772.16,205.12 706.79,190.43 670.23,182.96 " fill="none" id="aluguel_veiculo-to-app" style="stroke:#181818;stroke-width:1.0;"/><polygon fill="#181818" points="665.05,181.92,673.0844,187.6164,669.9518,182.9061,674.6621,179.7735,665.05,181.92" style="stroke:#181818;stroke-width:1.0;"/><text fill="#000000" font-family="sans-serif" font-size="13" lengthAdjust="spacing" textLength="214" x="862.97" y="237.5669">10:cadastro de aluguel do veiculo</text></g><!--MD5=[8650f817296205a707265f182589bd9f]
link aluguel_veiculo to client--><g id="link_aluguel_veiculo_client"><path d="M1172.53,289.38 C1308.64,288.7 1592.64,273.89 1505.97,158.5 C1422.65,47.57 943.05,43.63 830.57,44.25 " fill="none" id="aluguel_veiculo-to-client" style="stroke:#181818;stroke-width:1.0;"/><polygon fill="#181818" points="825.5,44.28,834.5227,48.2285,830.4999,44.2514,834.477,40.2286,825.5,44.28" style="stroke:#181818;stroke-width:1.0;"/><text fill="#000000" font-family="sans-serif" font-size="13" lengthAdjust="spacing" textLength="367" x="1521.97" y="181.0669">8:pedir parâmetros(cliente, carro, data inicial e data final)</text></g><!--MD5=[516ca9c2cdbf9d2411e3394849938b86]
link client to aluguel_veiculo--><g id="link_client_aluguel_veiculo"><path d="M825.72,46.27 C903.76,54.05 1201.16,88.04 1255.97,158.5 C1291.84,204.62 1214.89,246.28 1157.93,269.41 " fill="none" id="client-to-aluguel_veiculo" style="stroke:#181818;stroke-width:1.0;"/><polygon fill="#181818" points="1153.17,271.32,1163.0128,271.6653,1157.8074,269.4508,1160.022,264.2454,1153.17,271.32" style="stroke:#181818;stroke-width:1.0;"/><text fill="#000000" font-family="sans-serif" font-size="13" lengthAdjust="spacing" textLength="178" x="1265.97" y="181.0669">9:passagem de parâmetros</text></g><!--MD5=[8650f817296205a707265f182589bd9f]
link aluguel_veiculo to client--><g id="link_aluguel_veiculo_client"><path d="M1102.37,271.23 C1100.13,256.84 1094.78,236.78 1081.97,224.5 C1048.16,192.1 1019.97,220.42 980.97,194.5 C941.25,168.1 948.69,143.09 912.97,111.5 C887.24,88.75 852.96,68.59 830.44,56.47 " fill="none" id="aluguel_veiculo-to-client-1" style="stroke:#181818;stroke-width:1.0;"/><polygon fill="#181818" points="825.83,54.01,831.8849,61.7778,830.2406,56.3652,835.6532,54.7208,825.83,54.01" style="stroke:#181818;stroke-width:1.0;"/><text fill="#000000" font-family="sans-serif" font-size="13" lengthAdjust="spacing" textLength="265" x="981.97" y="181.0669">12:mostrar dias restantes e possivel taxa</text></g><!--MD5=[0fcef5af5be2f09aa52ea6b1c6a64e99]
link app to app--><g id="link_app_app"><path d="M665.2,167.24 C682.51,164.01 699.97,167.09 699.97,176.5 C699.97,184.95 685.88,188.3 670.46,186.55 " fill="none" id="app-to-app" style="stroke:#181818;stroke-width:1.0;"/><polygon fill="#181818" points="665.2,185.76,673.5056,191.0532,670.1445,186.5031,674.6945,183.142,665.2,185.76" style="stroke:#181818;stroke-width:1.0;"/><text fill="#000000" font-family="sans-serif" font-size="13" lengthAdjust="spacing" textLength="216" x="705.97" y="181.0669">11:mudança de estado do veiculo</text></g><!--MD5=[1875bcf78bac89710c9ca5f9cdef8660]
@startuml diagrama_de_colaboração
actor client
skinparam linestyle ortho
rectangle "app" as app
rectangle "cadastrar usuario (1)" as criar_usuario
rectangle "alugar veiculo (2)" as aluguel_veiculo

client -right-> app: 1:escolher ação (1)
app -down-> criar_usuario: 2:chamar função
criar_usuario - -> client: 3:solicitação de parâmetro (nome)
client - -> criar_usuario: 4:passagem de parâmetro
criar_usuario - -> app: 5:armazenar cliente
client - -> app: 6:escolher ação (2)
app - -> aluguel_veiculo: 7:chamar função
aluguel_veiculo - -> client: 8:pedir parâmetros(cliente, carro, data inicial e data final)
client - -> aluguel_veiculo: 9:passagem de parâmetros
aluguel_veiculo - -> app: 10:cadastro de aluguel do veiculo
app - -> app: 11:mudança de estado do veiculo
aluguel_veiculo - -> client: 12:mostrar dias restantes e possivel taxa
@enduml

PlantUML version 1.2022.7(Mon Aug 22 14:01:30 BRT 2022)
(GPL source distribution)
Java Runtime: OpenJDK Runtime Environment
JVM: OpenJDK 64-Bit Server VM
Default Encoding: UTF-8
Language: pt
Country: BR
--></g></svg>