<?xml version="1.0" encoding="UTF-8" standalone="no"?><svg xmlns="http://www.w3.org/2000/svg" xmlns:xlink="http://www.w3.org/1999/xlink" contentStyleType="text/css" height="363px" preserveAspectRatio="none" style="width:755px;height:363px;background:#FFFFFF;" version="1.1" viewBox="0 0 755 363" width="755px" zoomAndPan="magnify"><defs/><g><line style="stroke:#181818;stroke-width:0.5;stroke-dasharray:5.0,5.0;" x1="30" x2="30" y1="36.2969" y2="328.3594"/><line style="stroke:#181818;stroke-width:0.5;stroke-dasharray:5.0,5.0;" x1="436.5" x2="436.5" y1="36.2969" y2="328.3594"/><rect fill="#E2E2F0" height="30.2969" rx="2.5" ry="2.5" style="stroke:#181818;stroke-width:0.5;" width="51" x="5" y="5"/><text fill="#000000" font-family="sans-serif" font-size="14" lengthAdjust="spacing" textLength="37" x="12" y="24.9951">client</text><rect fill="#E2E2F0" height="30.2969" rx="2.5" ry="2.5" style="stroke:#181818;stroke-width:0.5;" width="51" x="5" y="327.3594"/><text fill="#000000" font-family="sans-serif" font-size="14" lengthAdjust="spacing" textLength="37" x="12" y="347.3545">client</text><rect fill="#E2E2F0" height="30.2969" rx="2.5" ry="2.5" style="stroke:#181818;stroke-width:0.5;" width="40" x="416.5" y="5"/><text fill="#000000" font-family="sans-serif" font-size="14" lengthAdjust="spacing" textLength="26" x="423.5" y="24.9951">app</text><rect fill="#E2E2F0" height="30.2969" rx="2.5" ry="2.5" style="stroke:#181818;stroke-width:0.5;" width="40" x="416.5" y="327.3594"/><text fill="#000000" font-family="sans-serif" font-size="14" lengthAdjust="spacing" textLength="26" x="423.5" y="347.3545">app</text><polygon fill="#181818" points="424.5,63.4297,434.5,67.4297,424.5,71.4297,428.5,67.4297" style="stroke:#181818;stroke-width:1.0;"/><line style="stroke:#181818;stroke-width:1.0;stroke-dasharray:2.0,2.0;" x1="30.5" x2="430.5" y1="67.4297" y2="67.4297"/><text fill="#000000" font-family="sans-serif" font-size="13" lengthAdjust="spacing" textLength="88" x="37.5" y="62.3638">alugar veiculo</text><polygon fill="#181818" points="41.5,92.5625,31.5,96.5625,41.5,100.5625,37.5,96.5625" style="stroke:#181818;stroke-width:1.0;"/><line style="stroke:#181818;stroke-width:1.0;stroke-dasharray:2.0,2.0;" x1="35.5" x2="435.5" y1="96.5625" y2="96.5625"/><text fill="#000000" font-family="sans-serif" font-size="13" lengthAdjust="spacing" textLength="292" x="47.5" y="91.4966">solicitar carro, usuario, data inicial e data final</text><polygon fill="#181818" points="424.5,121.6953,434.5,125.6953,424.5,129.6953,428.5,125.6953" style="stroke:#181818;stroke-width:1.0;"/><line style="stroke:#181818;stroke-width:1.0;stroke-dasharray:2.0,2.0;" x1="30.5" x2="430.5" y1="125.6953" y2="125.6953"/><text fill="#000000" font-family="sans-serif" font-size="13" lengthAdjust="spacing" textLength="146" x="37.5" y="120.6294">retorno de parâmetros</text><line style="stroke:#181818;stroke-width:1.0;stroke-dasharray:2.0,2.0;" x1="436.5" x2="478.5" y1="154.8281" y2="154.8281"/><line style="stroke:#181818;stroke-width:1.0;stroke-dasharray:2.0,2.0;" x1="478.5" x2="478.5" y1="154.8281" y2="167.8281"/><line style="stroke:#181818;stroke-width:1.0;stroke-dasharray:2.0,2.0;" x1="437.5" x2="478.5" y1="167.8281" y2="167.8281"/><polygon fill="#181818" points="447.5,163.8281,437.5,167.8281,447.5,171.8281,443.5,167.8281" style="stroke:#181818;stroke-width:1.0;"/><text fill="#000000" font-family="sans-serif" font-size="13" lengthAdjust="spacing" textLength="126" x="443.5" y="149.7622">cadastro de aluguel</text><line style="stroke:#181818;stroke-width:1.0;stroke-dasharray:2.0,2.0;" x1="436.5" x2="478.5" y1="196.9609" y2="196.9609"/><line style="stroke:#181818;stroke-width:1.0;stroke-dasharray:2.0,2.0;" x1="478.5" x2="478.5" y1="196.9609" y2="209.9609"/><line style="stroke:#181818;stroke-width:1.0;stroke-dasharray:2.0,2.0;" x1="437.5" x2="478.5" y1="209.9609" y2="209.9609"/><polygon fill="#181818" points="447.5,205.9609,437.5,209.9609,447.5,213.9609,443.5,209.9609" style="stroke:#181818;stroke-width:1.0;"/><text fill="#000000" font-family="sans-serif" font-size="13" lengthAdjust="spacing" textLength="273" x="443.5" y="191.895">atualizar estado de carro pra "indisponivel"</text><line style="stroke:#181818;stroke-width:1.0;stroke-dasharray:2.0,2.0;" x1="436.5" x2="478.5" y1="239.0938" y2="239.0938"/><line style="stroke:#181818;stroke-width:1.0;stroke-dasharray:2.0,2.0;" x1="478.5" x2="478.5" y1="239.0938" y2="252.0938"/><line style="stroke:#181818;stroke-width:1.0;stroke-dasharray:2.0,2.0;" x1="437.5" x2="478.5" y1="252.0938" y2="252.0938"/><polygon fill="#181818" points="447.5,248.0938,437.5,252.0938,447.5,256.0938,443.5,252.0938" style="stroke:#181818;stroke-width:1.0;"/><text fill="#000000" font-family="sans-serif" font-size="13" lengthAdjust="spacing" textLength="305" x="443.5" y="234.0278">atualizar historico de carros alugados do cliente</text><polygon fill="#181818" points="41.5,277.2266,31.5,281.2266,41.5,285.2266,37.5,281.2266" style="stroke:#181818;stroke-width:1.0;"/><line style="stroke:#181818;stroke-width:1.0;stroke-dasharray:2.0,2.0;" x1="35.5" x2="435.5" y1="281.2266" y2="281.2266"/><text fill="#000000" font-family="sans-serif" font-size="13" lengthAdjust="spacing" textLength="345" x="47.5" y="276.1606">mostrar a quantidade de dias restantes até a entrega</text><polygon fill="#181818" points="41.5,306.3594,31.5,310.3594,41.5,314.3594,37.5,310.3594" style="stroke:#181818;stroke-width:1.0;"/><line style="stroke:#181818;stroke-width:1.0;stroke-dasharray:2.0,2.0;" x1="35.5" x2="435.5" y1="310.3594" y2="310.3594"/><text fill="#000000" font-family="sans-serif" font-size="13" lengthAdjust="spacing" textLength="382" x="47.5" y="305.2935">se estiver fora do prazo mostrar o preço da taxa a ser paga</text><!--MD5=[26061ecd24c7bafcf13ddc7791060e78]
@startuml alugar_veiculo
client - -> app:alugar veiculo
app - -> client:solicitar carro, usuario, data inicial e data final
client - -> app:retorno de parâmetros

app - -> app:cadastro de aluguel
app - -> app:atualizar estado de carro pra "indisponivel"
app - -> app:atualizar historico de carros alugados do cliente
app - -> client:mostrar a quantidade de dias restantes até a entrega
app - -> client:se estiver fora do prazo mostrar o preço da taxa a ser paga
@enduml

PlantUML version 1.2022.7(Mon Aug 22 14:01:30 BRT 2022)
(GPL source distribution)
Java Runtime: OpenJDK Runtime Environment
JVM: OpenJDK 64-Bit Server VM
Default Encoding: UTF-8
Language: pt
Country: BR
--></g></svg>