<?xml version="1.0" encoding="UTF-8" standalone="no"?><svg xmlns="http://www.w3.org/2000/svg" xmlns:xlink="http://www.w3.org/1999/xlink" contentStyleType="text/css" height="970px" preserveAspectRatio="none" style="width:1730px;height:970px;background:#FFFFFF;" version="1.1" viewBox="0 0 1730 970" width="1730px" zoomAndPan="magnify"><defs/><g><ellipse cx="851.5" cy="20" fill="#222222" rx="10" ry="10" style="stroke:#222222;stroke-width:1.0;"/><rect fill="#F1F1F1" height="33.9688" rx="12.5" ry="12.5" style="stroke:#181818;stroke-width:0.5;" width="148" x="777.5" y="50"/><text fill="#000000" font-family="sans-serif" font-size="12" lengthAdjust="spacing" textLength="128" x="787.5" y="71.1387">digite a ação a fazer</text><rect fill="#FFC0CB" height="33.9688" rx="12.5" ry="12.5" style="stroke:#181818;stroke-width:0.5;" width="149" x="777" y="147.9688"/><text fill="#000000" font-family="sans-serif" font-size="12" lengthAdjust="spacing" textLength="129" x="787" y="169.1074">a locadora quebrou!</text><rect fill="#FF4500" height="33.9688" rx="12.5" ry="12.5" style="stroke:#181818;stroke-width:0.5;" width="61" x="821" y="216.4375"/><text fill="#000000" font-family="sans-serif" font-size="12" lengthAdjust="spacing" textLength="41" x="831" y="237.5762">(error)</text><polygon fill="#F1F1F1" points="833,103.9688,870,103.9688,882,115.9688,870,127.9688,833,127.9688,821,115.9688,833,103.9688" style="stroke:#181818;stroke-width:0.5;"/><text fill="#000000" font-family="sans-serif" font-size="11" lengthAdjust="spacing" textLength="29" x="837" y="119.7769">error</text><polygon fill="#F1F1F1" points="831.5,336.4063,871.5,336.4063,883.5,348.4063,871.5,360.4063,831.5,360.4063,819.5,348.4063,831.5,336.4063" style="stroke:#181818;stroke-width:0.5;"/><text fill="#000000" font-family="sans-serif" font-size="11" lengthAdjust="spacing" textLength="32" x="835.5" y="352.2144">resp?</text><rect fill="#98FB98" height="33.9688" rx="12.5" ry="12.5" style="stroke:#181818;stroke-width:0.5;" width="129" x="20.5" y="396.0156"/><text fill="#000000" font-family="sans-serif" font-size="12" lengthAdjust="spacing" textLength="109" x="30.5" y="417.1543">Cadastrar veiculo</text><rect fill="#F1F1F1" height="33.9688" rx="12.5" ry="12.5" style="stroke:#181818;stroke-width:0.5;" width="148" x="11" y="449.9844"/><text fill="#000000" font-family="sans-serif" font-size="12" lengthAdjust="spacing" textLength="128" x="21" y="471.123">pede os parâmetros</text><rect fill="#F1F1F1" height="33.9688" rx="12.5" ry="12.5" style="stroke:#181818;stroke-width:0.5;" width="102" x="34" y="503.9531"/><text fill="#000000" font-family="sans-serif" font-size="12" lengthAdjust="spacing" textLength="82" x="44" y="525.0918">cria o veiculo</text><rect fill="#F1F1F1" height="33.9688" rx="12.5" ry="12.5" style="stroke:#181818;stroke-width:0.5;" width="130" x="20" y="557.9219"/><text fill="#000000" font-family="sans-serif" font-size="12" lengthAdjust="spacing" textLength="110" x="30" y="579.0605">armazena o carro</text><rect fill="#98FB98" height="33.9688" rx="12.5" ry="12.5" style="stroke:#181818;stroke-width:0.5;" width="252" x="169" y="396.0156"/><text fill="#000000" font-family="sans-serif" font-size="12" lengthAdjust="spacing" textLength="232" x="179" y="417.1543">Consultar disponibilidade de veículos</text><rect fill="#F1F1F1" height="33.9688" rx="12.5" ry="12.5" style="stroke:#181818;stroke-width:0.5;" width="115" x="237.5" y="449.9844"/><text fill="#000000" font-family="sans-serif" font-size="12" lengthAdjust="spacing" textLength="95" x="247.5" y="471.123">cria duas listas</text><rect fill="#F1F1F1" height="33.9688" rx="12.5" ry="12.5" style="stroke:#181818;stroke-width:0.5;" width="247" x="171.5" y="503.9531"/><text fill="#000000" font-family="sans-serif" font-size="12" lengthAdjust="spacing" textLength="227" x="181.5" y="525.0918">(carros disponiveis e indeisponiveis)</text><rect fill="#F1F1F1" height="33.9688" rx="12.5" ry="12.5" style="stroke:#181818;stroke-width:0.5;" width="162" x="214" y="557.9219"/><text fill="#000000" font-family="sans-serif" font-size="12" lengthAdjust="spacing" textLength="142" x="224" y="579.0605">pergunta qual mostrar</text><rect fill="#F1F1F1" height="33.9688" rx="12.5" ry="12.5" style="stroke:#181818;stroke-width:0.5;" width="106" x="242" y="611.8906"/><text fill="#000000" font-family="sans-serif" font-size="12" lengthAdjust="spacing" textLength="86" x="252" y="633.0293">mostra a lista</text><rect fill="#98FB98" height="33.9688" rx="12.5" ry="12.5" style="stroke:#181818;stroke-width:0.5;" width="176" x="474" y="396.0156"/><text fill="#000000" font-family="sans-serif" font-size="12" lengthAdjust="spacing" textLength="156" x="484" y="417.1543">Listar veículos por marca</text><rect fill="#F1F1F1" height="33.9688" rx="12.5" ry="12.5" style="stroke:#181818;stroke-width:0.5;" width="164" x="480" y="449.9844"/><text fill="#000000" font-family="sans-serif" font-size="12" lengthAdjust="spacing" textLength="144" x="490" y="471.123">pede a marca do carro</text><rect fill="#F1F1F1" height="33.9688" rx="12.5" ry="12.5" style="stroke:#181818;stroke-width:0.5;" width="262" x="431" y="503.9531"/><text fill="#000000" font-family="sans-serif" font-size="12" lengthAdjust="spacing" textLength="242" x="441" y="525.0918">mostra a lista dos carros com a marca</text><rect fill="#98FB98" height="33.9688" rx="12.5" ry="12.5" style="stroke:#181818;stroke-width:0.5;" width="183" x="746" y="396.0156"/><text fill="#000000" font-family="sans-serif" font-size="12" lengthAdjust="spacing" textLength="163" x="756" y="417.1543">Listar veículos por modelo</text><rect fill="#F1F1F1" height="33.9688" rx="12.5" ry="12.5" style="stroke:#181818;stroke-width:0.5;" width="171" x="752" y="449.9844"/><text fill="#000000" font-family="sans-serif" font-size="12" lengthAdjust="spacing" textLength="151" x="762" y="471.123">pede o modelo do carro</text><rect fill="#F1F1F1" height="33.9688" rx="12.5" ry="12.5" style="stroke:#181818;stroke-width:0.5;" width="269" x="703" y="503.9531"/><text fill="#000000" font-family="sans-serif" font-size="12" lengthAdjust="spacing" textLength="249" x="713" y="525.0918">mostra a lista dos carros com o modelo</text><rect fill="#98FB98" height="33.9688" rx="12.5" ry="12.5" style="stroke:#181818;stroke-width:0.5;" width="161" x="1025" y="396.0156"/><text fill="#000000" font-family="sans-serif" font-size="12" lengthAdjust="spacing" textLength="141" x="1035" y="417.1543">Listar veículos por ano</text><rect fill="#F1F1F1" height="33.9688" rx="12.5" ry="12.5" style="stroke:#181818;stroke-width:0.5;" width="149" x="1031" y="449.9844"/><text fill="#000000" font-family="sans-serif" font-size="12" lengthAdjust="spacing" textLength="129" x="1041" y="471.123">pede o ano do carro</text><rect fill="#F1F1F1" height="33.9688" rx="12.5" ry="12.5" style="stroke:#181818;stroke-width:0.5;" width="247" x="982" y="503.9531"/><text fill="#000000" font-family="sans-serif" font-size="12" lengthAdjust="spacing" textLength="227" x="992" y="525.0918">mostra a lista dos carros com o ano</text><rect fill="#98FB98" height="33.9688" rx="12.5" ry="12.5" style="stroke:#181818;stroke-width:0.5;" width="100" x="1273.5" y="396.0156"/><text fill="#000000" font-family="sans-serif" font-size="12" lengthAdjust="spacing" textLength="80" x="1283.5" y="417.1543">Criar usuario</text><rect fill="#F1F1F1" height="33.9688" rx="12.5" ry="12.5" style="stroke:#181818;stroke-width:0.5;" width="169" x="1239" y="449.9844"/><text fill="#000000" font-family="sans-serif" font-size="12" lengthAdjust="spacing" textLength="149" x="1249" y="471.123">pede o nome do cliente</text><rect fill="#F1F1F1" height="33.9688" rx="12.5" ry="12.5" style="stroke:#181818;stroke-width:0.5;" width="142" x="1252.5" y="503.9531"/><text fill="#000000" font-family="sans-serif" font-size="12" lengthAdjust="spacing" textLength="122" x="1262.5" y="525.0918">gera o id do cliente</text><rect fill="#F1F1F1" height="33.9688" rx="12.5" ry="12.5" style="stroke:#181818;stroke-width:0.5;" width="101" x="1273" y="557.9219"/><text fill="#000000" font-family="sans-serif" font-size="12" lengthAdjust="spacing" textLength="81" x="1283" y="579.0605">cria o cliente</text><rect fill="#F1F1F1" height="33.9688" rx="12.5" ry="12.5" style="stroke:#181818;stroke-width:0.5;" width="139" x="1254" y="611.8906"/><text fill="#000000" font-family="sans-serif" font-size="12" lengthAdjust="spacing" textLength="119" x="1264" y="633.0293">armazena o cliente</text><rect fill="#98FB98" height="33.9688" rx="12.5" ry="12.5" style="stroke:#181818;stroke-width:0.5;" width="107" x="1501.5" y="396.0156"/><text fill="#000000" font-family="sans-serif" font-size="12" lengthAdjust="spacing" textLength="87" x="1511.5" y="417.1543">alugar veiculo</text><rect fill="#F1F1F1" height="33.9688" rx="12.5" ry="12.5" style="stroke:#181818;stroke-width:0.5;" width="192" x="1459" y="449.9844"/><text fill="#000000" font-family="sans-serif" font-size="12" lengthAdjust="spacing" textLength="172" x="1469" y="471.123">pede o carro a ser alugado</text><rect fill="#F1F1F1" height="33.9688" rx="12.5" ry="12.5" style="stroke:#181818;stroke-width:0.5;" width="203" x="1453.5" y="503.9531"/><text fill="#000000" font-family="sans-serif" font-size="12" lengthAdjust="spacing" textLength="183" x="1463.5" y="525.0918">pede o cliente que vai alugar</text><rect fill="#F1F1F1" height="33.9688" rx="12.5" ry="12.5" style="stroke:#181818;stroke-width:0.5;" width="272" x="1419" y="557.9219"/><text fill="#000000" font-family="sans-serif" font-size="12" lengthAdjust="spacing" textLength="252" x="1429" y="579.0605">pede as datas de aluguel (inicial e final)</text><rect fill="#F1F1F1" height="33.9688" rx="12.5" ry="12.5" style="stroke:#181818;stroke-width:0.5;" width="218" x="1446" y="611.8906"/><text fill="#000000" font-family="sans-serif" font-size="12" lengthAdjust="spacing" textLength="198" x="1456" y="633.0293">gera a data de hoje pro calculo</text><rect fill="#F1F1F1" height="33.9688" rx="12.5" ry="12.5" style="stroke:#181818;stroke-width:0.5;" width="105" x="1502.5" y="665.8594"/><text fill="#000000" font-family="sans-serif" font-size="12" lengthAdjust="spacing" textLength="85" x="1512.5" y="686.998">cria o aluguel</text><rect fill="#F1F1F1" height="33.9688" rx="12.5" ry="12.5" style="stroke:#181818;stroke-width:0.5;" width="217" x="1446.5" y="719.8281"/><text fill="#000000" font-family="sans-serif" font-size="12" lengthAdjust="spacing" textLength="197" x="1456.5" y="740.9668">adiciona ao historico do cliente</text><rect fill="#F1F1F1" height="33.9688" rx="12.5" ry="12.5" style="stroke:#181818;stroke-width:0.5;" width="274" x="1418" y="773.7969"/><text fill="#000000" font-family="sans-serif" font-size="12" lengthAdjust="spacing" textLength="254" x="1428" y="794.9355">muda o estado do carro pra indisponivel</text><polygon fill="#F1F1F1" points="851.5,827.7656,851.5,827.7656,863.5,839.7656,851.5,851.7656,851.5,851.7656,839.5,839.7656,851.5,827.7656" style="stroke:#181818;stroke-width:0.5;"/><polygon fill="#F1F1F1" points="851.5,292.4063,863.5,304.4063,851.5,316.4063,839.5,304.4063,851.5,292.4063" style="stroke:#181818;stroke-width:0.5;"/><polygon fill="#F1F1F1" points="795,871.7656,908,871.7656,920,883.7656,908,895.7656,795,895.7656,783,883.7656,795,871.7656" style="stroke:#181818;stroke-width:0.5;"/><text fill="#000000" font-family="sans-serif" font-size="11" lengthAdjust="spacing" textLength="113" x="795" y="887.5737">need more actions?</text><text fill="#000000" font-family="sans-serif" font-size="11" lengthAdjust="spacing" textLength="20" x="920" y="881.1714">yes</text><ellipse cx="851.5" cy="948.1646" fill="none" rx="11" ry="11" style="stroke:#222222;stroke-width:1.0;"/><ellipse cx="851.5" cy="948.1646" fill="#222222" rx="6" ry="6" style="stroke:#111111;stroke-width:1.0;"/><line style="stroke:#181818;stroke-width:1.0;" x1="851.5" x2="851.5" y1="30" y2="50"/><polygon fill="#181818" points="847.5,40,851.5,50,855.5,40,851.5,44" style="stroke:#181818;stroke-width:1.0;"/><line style="stroke:#181818;stroke-width:1.0;" x1="851.5" x2="851.5" y1="181.9375" y2="216.4375"/><polygon fill="#181818" points="847.5,206.4375,851.5,216.4375,855.5,206.4375,851.5,210.4375" style="stroke:#181818;stroke-width:1.0;"/><line style="stroke:#181818;stroke-width:1.0;" x1="851.5" x2="851.5" y1="127.9688" y2="147.9688"/><polygon fill="#181818" points="847.5,137.9688,851.5,147.9688,855.5,137.9688,851.5,141.9688" style="stroke:#181818;stroke-width:1.0;"/><line style="stroke:#181818;stroke-width:1.0;" x1="882" x2="936" y1="115.9688" y2="115.9688"/><polygon fill="#181818" points="932,186.4375,936,196.4375,940,186.4375,936,190.4375" style="stroke:#181818;stroke-width:1.0;"/><line style="stroke:#181818;stroke-width:1.0;" x1="936" x2="936" y1="115.9688" y2="272.4063"/><line style="stroke:#181818;stroke-width:1.0;" x1="936" x2="851.5" y1="272.4063" y2="272.4063"/><line style="stroke:#181818;stroke-width:1.0;" x1="851.5" x2="851.5" y1="272.4063" y2="292.4063"/><polygon fill="#181818" points="847.5,282.4063,851.5,292.4063,855.5,282.4063,851.5,286.4063" style="stroke:#181818;stroke-width:1.0;"/><line style="stroke:#181818;stroke-width:1.0;" x1="851.5" x2="851.5" y1="83.9688" y2="103.9688"/><polygon fill="#181818" points="847.5,93.9688,851.5,103.9688,855.5,93.9688,851.5,97.9688" style="stroke:#181818;stroke-width:1.0;"/><line style="stroke:#181818;stroke-width:1.0;" x1="85" x2="85" y1="429.9844" y2="449.9844"/><polygon fill="#181818" points="81,439.9844,85,449.9844,89,439.9844,85,443.9844" style="stroke:#181818;stroke-width:1.0;"/><line style="stroke:#181818;stroke-width:1.0;" x1="85" x2="85" y1="483.9531" y2="503.9531"/><polygon fill="#181818" points="81,493.9531,85,503.9531,89,493.9531,85,497.9531" style="stroke:#181818;stroke-width:1.0;"/><line style="stroke:#181818;stroke-width:1.0;" x1="85" x2="85" y1="537.9219" y2="557.9219"/><polygon fill="#181818" points="81,547.9219,85,557.9219,89,547.9219,85,551.9219" style="stroke:#181818;stroke-width:1.0;"/><line style="stroke:#181818;stroke-width:1.0;" x1="295" x2="295" y1="429.9844" y2="449.9844"/><polygon fill="#181818" points="291,439.9844,295,449.9844,299,439.9844,295,443.9844" style="stroke:#181818;stroke-width:1.0;"/><line style="stroke:#181818;stroke-width:1.0;" x1="295" x2="295" y1="483.9531" y2="503.9531"/><polygon fill="#181818" points="291,493.9531,295,503.9531,299,493.9531,295,497.9531" style="stroke:#181818;stroke-width:1.0;"/><line style="stroke:#181818;stroke-width:1.0;" x1="295" x2="295" y1="537.9219" y2="557.9219"/><polygon fill="#181818" points="291,547.9219,295,557.9219,299,547.9219,295,551.9219" style="stroke:#181818;stroke-width:1.0;"/><line style="stroke:#181818;stroke-width:1.0;" x1="295" x2="295" y1="591.8906" y2="611.8906"/><polygon fill="#181818" points="291,601.8906,295,611.8906,299,601.8906,295,605.8906" style="stroke:#181818;stroke-width:1.0;"/><line style="stroke:#181818;stroke-width:1.0;" x1="562" x2="562" y1="429.9844" y2="449.9844"/><polygon fill="#181818" points="558,439.9844,562,449.9844,566,439.9844,562,443.9844" style="stroke:#181818;stroke-width:1.0;"/><line style="stroke:#181818;stroke-width:1.0;" x1="562" x2="562" y1="483.9531" y2="503.9531"/><polygon fill="#181818" points="558,493.9531,562,503.9531,566,493.9531,562,497.9531" style="stroke:#181818;stroke-width:1.0;"/><line style="stroke:#181818;stroke-width:1.0;" x1="837.5" x2="837.5" y1="429.9844" y2="449.9844"/><polygon fill="#181818" points="833.5,439.9844,837.5,449.9844,841.5,439.9844,837.5,443.9844" style="stroke:#181818;stroke-width:1.0;"/><line style="stroke:#181818;stroke-width:1.0;" x1="837.5" x2="837.5" y1="483.9531" y2="503.9531"/><polygon fill="#181818" points="833.5,493.9531,837.5,503.9531,841.5,493.9531,837.5,497.9531" style="stroke:#181818;stroke-width:1.0;"/><line style="stroke:#181818;stroke-width:1.0;" x1="1105.5" x2="1105.5" y1="429.9844" y2="449.9844"/><polygon fill="#181818" points="1101.5,439.9844,1105.5,449.9844,1109.5,439.9844,1105.5,443.9844" style="stroke:#181818;stroke-width:1.0;"/><line style="stroke:#181818;stroke-width:1.0;" x1="1105.5" x2="1105.5" y1="483.9531" y2="503.9531"/><polygon fill="#181818" points="1101.5,493.9531,1105.5,503.9531,1109.5,493.9531,1105.5,497.9531" style="stroke:#181818;stroke-width:1.0;"/><line style="stroke:#181818;stroke-width:1.0;" x1="1323.5" x2="1323.5" y1="429.9844" y2="449.9844"/><polygon fill="#181818" points="1319.5,439.9844,1323.5,449.9844,1327.5,439.9844,1323.5,443.9844" style="stroke:#181818;stroke-width:1.0;"/><line style="stroke:#181818;stroke-width:1.0;" x1="1323.5" x2="1323.5" y1="483.9531" y2="503.9531"/><polygon fill="#181818" points="1319.5,493.9531,1323.5,503.9531,1327.5,493.9531,1323.5,497.9531" style="stroke:#181818;stroke-width:1.0;"/><line style="stroke:#181818;stroke-width:1.0;" x1="1323.5" x2="1323.5" y1="537.9219" y2="557.9219"/><polygon fill="#181818" points="1319.5,547.9219,1323.5,557.9219,1327.5,547.9219,1323.5,551.9219" style="stroke:#181818;stroke-width:1.0;"/><line style="stroke:#181818;stroke-width:1.0;" x1="1323.5" x2="1323.5" y1="591.8906" y2="611.8906"/><polygon fill="#181818" points="1319.5,601.8906,1323.5,611.8906,1327.5,601.8906,1323.5,605.8906" style="stroke:#181818;stroke-width:1.0;"/><line style="stroke:#181818;stroke-width:1.0;" x1="1555" x2="1555" y1="429.9844" y2="449.9844"/><polygon fill="#181818" points="1551,439.9844,1555,449.9844,1559,439.9844,1555,443.9844" style="stroke:#181818;stroke-width:1.0;"/><line style="stroke:#181818;stroke-width:1.0;" x1="1555" x2="1555" y1="483.9531" y2="503.9531"/><polygon fill="#181818" points="1551,493.9531,1555,503.9531,1559,493.9531,1555,497.9531" style="stroke:#181818;stroke-width:1.0;"/><line style="stroke:#181818;stroke-width:1.0;" x1="1555" x2="1555" y1="537.9219" y2="557.9219"/><polygon fill="#181818" points="1551,547.9219,1555,557.9219,1559,547.9219,1555,551.9219" style="stroke:#181818;stroke-width:1.0;"/><line style="stroke:#181818;stroke-width:1.0;" x1="1555" x2="1555" y1="591.8906" y2="611.8906"/><polygon fill="#181818" points="1551,601.8906,1555,611.8906,1559,601.8906,1555,605.8906" style="stroke:#181818;stroke-width:1.0;"/><line style="stroke:#181818;stroke-width:1.0;" x1="1555" x2="1555" y1="645.8594" y2="665.8594"/><polygon fill="#181818" points="1551,655.8594,1555,665.8594,1559,655.8594,1555,659.8594" style="stroke:#181818;stroke-width:1.0;"/><line style="stroke:#181818;stroke-width:1.0;" x1="1555" x2="1555" y1="699.8281" y2="719.8281"/><polygon fill="#181818" points="1551,709.8281,1555,719.8281,1559,709.8281,1555,713.8281" style="stroke:#181818;stroke-width:1.0;"/><line style="stroke:#181818;stroke-width:1.0;" x1="1555" x2="1555" y1="753.7969" y2="773.7969"/><polygon fill="#181818" points="1551,763.7969,1555,773.7969,1559,763.7969,1555,767.7969" style="stroke:#181818;stroke-width:1.0;"/><line style="stroke:#181818;stroke-width:1.0;" x1="819.5" x2="85" y1="348.4063" y2="348.4063"/><line style="stroke:#181818;stroke-width:1.0;" x1="85" x2="85" y1="348.4063" y2="396.0156"/><polygon fill="#181818" points="81,386.0156,85,396.0156,89,386.0156,85,390.0156" style="stroke:#181818;stroke-width:1.0;"/><text fill="#000000" font-family="sans-serif" font-size="11" lengthAdjust="spacing" textLength="59" x="89" y="376.019">resp == 0</text><line style="stroke:#181818;stroke-width:1.0;" x1="883.5" x2="1555" y1="348.4063" y2="348.4063"/><line style="stroke:#181818;stroke-width:1.0;" x1="1555" x2="1555" y1="348.4063" y2="396.0156"/><polygon fill="#181818" points="1551,386.0156,1555,396.0156,1559,386.0156,1555,390.0156" style="stroke:#181818;stroke-width:1.0;"/><text fill="#000000" font-family="sans-serif" font-size="11" lengthAdjust="spacing" textLength="59" x="1559" y="376.019">resp == 6</text><line style="stroke:#181818;stroke-width:1.0;" x1="295" x2="295" y1="348.4063" y2="396.0156"/><polygon fill="#181818" points="291,386.0156,295,396.0156,299,386.0156,295,390.0156" style="stroke:#181818;stroke-width:1.0;"/><text fill="#000000" font-family="sans-serif" font-size="11" lengthAdjust="spacing" textLength="59" x="299" y="371.019">resp == 1</text><line style="stroke:#181818;stroke-width:1.0;" x1="562" x2="562" y1="348.4063" y2="396.0156"/><polygon fill="#181818" points="558,386.0156,562,396.0156,566,386.0156,562,390.0156" style="stroke:#181818;stroke-width:1.0;"/><text fill="#000000" font-family="sans-serif" font-size="11" lengthAdjust="spacing" textLength="59" x="566" y="371.019">resp == 2</text><line style="stroke:#181818;stroke-width:1.0;" x1="851.5" x2="851.5" y1="360.4063" y2="372.276"/><line style="stroke:#181818;stroke-width:1.0;" x1="851.5" x2="837.5" y1="372.276" y2="372.276"/><line style="stroke:#181818;stroke-width:1.0;" x1="837.5" x2="837.5" y1="372.276" y2="396.0156"/><polygon fill="#181818" points="833.5,386.0156,837.5,396.0156,841.5,386.0156,837.5,390.0156" style="stroke:#181818;stroke-width:1.0;"/><text fill="#000000" font-family="sans-serif" font-size="11" lengthAdjust="spacing" textLength="59" x="841.5" y="377.019">resp == 3</text><line style="stroke:#181818;stroke-width:1.0;" x1="1105.5" x2="1105.5" y1="348.4063" y2="396.0156"/><polygon fill="#181818" points="1101.5,386.0156,1105.5,396.0156,1109.5,386.0156,1105.5,390.0156" style="stroke:#181818;stroke-width:1.0;"/><text fill="#000000" font-family="sans-serif" font-size="11" lengthAdjust="spacing" textLength="59" x="1109.5" y="371.019">resp == 4</text><line style="stroke:#181818;stroke-width:1.0;" x1="1323.5" x2="1323.5" y1="348.4063" y2="396.0156"/><polygon fill="#181818" points="1319.5,386.0156,1323.5,396.0156,1327.5,386.0156,1323.5,390.0156" style="stroke:#181818;stroke-width:1.0;"/><text fill="#000000" font-family="sans-serif" font-size="11" lengthAdjust="spacing" textLength="59" x="1327.5" y="371.019">resp == 5</text><line style="stroke:#181818;stroke-width:1.0;" x1="85" x2="85" y1="591.8906" y2="839.7656"/><line style="stroke:#181818;stroke-width:1.0;" x1="85" x2="839.5" y1="839.7656" y2="839.7656"/><polygon fill="#181818" points="829.5,835.7656,839.5,839.7656,829.5,843.7656,833.5,839.7656" style="stroke:#181818;stroke-width:1.0;"/><line style="stroke:#181818;stroke-width:1.0;" x1="1555" x2="1555" y1="807.7656" y2="839.7656"/><line style="stroke:#181818;stroke-width:1.0;" x1="1555" x2="863.5" y1="839.7656" y2="839.7656"/><polygon fill="#181818" points="873.5,835.7656,863.5,839.7656,873.5,843.7656,869.5,839.7656" style="stroke:#181818;stroke-width:1.0;"/><line style="stroke:#181818;stroke-width:1.0;" x1="295" x2="295" y1="645.8594" y2="839.7656"/><polygon fill="#181818" points="291,829.7656,295,839.7656,299,829.7656,295,833.7656" style="stroke:#181818;stroke-width:1.0;"/><line style="stroke:#181818;stroke-width:1.0;" x1="562" x2="562" y1="537.9219" y2="839.7656"/><polygon fill="#181818" points="558,829.7656,562,839.7656,566,829.7656,562,833.7656" style="stroke:#181818;stroke-width:1.0;"/><line style="stroke:#181818;stroke-width:1.0;" x1="837.5" x2="837.5" y1="537.9219" y2="705.3438"/><line style="stroke:#181818;stroke-width:1.0;" x1="837.5" x2="851.5" y1="705.3438" y2="705.3438"/><line style="stroke:#181818;stroke-width:1.0;" x1="851.5" x2="851.5" y1="705.3438" y2="827.7656"/><polygon fill="#181818" points="847.5,817.7656,851.5,827.7656,855.5,817.7656,851.5,821.7656" style="stroke:#181818;stroke-width:1.0;"/><line style="stroke:#181818;stroke-width:1.0;" x1="1105.5" x2="1105.5" y1="537.9219" y2="839.7656"/><polygon fill="#181818" points="1101.5,829.7656,1105.5,839.7656,1109.5,829.7656,1105.5,833.7656" style="stroke:#181818;stroke-width:1.0;"/><line style="stroke:#181818;stroke-width:1.0;" x1="1323.5" x2="1323.5" y1="645.8594" y2="839.7656"/><polygon fill="#181818" points="1319.5,829.7656,1323.5,839.7656,1327.5,829.7656,1323.5,833.7656" style="stroke:#181818;stroke-width:1.0;"/><line style="stroke:#181818;stroke-width:1.0;" x1="851.5" x2="851.5" y1="316.4063" y2="336.4063"/><polygon fill="#181818" points="847.5,326.4063,851.5,336.4063,855.5,326.4063,851.5,330.4063" style="stroke:#181818;stroke-width:1.0;"/><line style="stroke:#181818;stroke-width:1.0;" x1="920" x2="1704" y1="883.7656" y2="883.7656"/><polygon fill="#181818" points="1700,641.5859,1704,631.5859,1708,641.5859,1704,637.5859" style="stroke:#181818;stroke-width:1.0;"/><line style="stroke:#181818;stroke-width:1.0;" x1="1704" x2="1704" y1="304.4063" y2="883.7656"/><line style="stroke:#181818;stroke-width:1.0;" x1="1704" x2="863.5" y1="304.4063" y2="304.4063"/><polygon fill="#181818" points="873.5,300.4063,863.5,304.4063,873.5,308.4063,869.5,304.4063" style="stroke:#181818;stroke-width:1.0;"/><line style="stroke:#181818;stroke-width:1.0;" x1="851.5" x2="851.5" y1="851.7656" y2="871.7656"/><polygon fill="#181818" points="847.5,861.7656,851.5,871.7656,855.5,861.7656,851.5,865.7656" style="stroke:#181818;stroke-width:1.0;"/><line style="stroke:#181818;stroke-width:1.0;" x1="851.5" x2="851.5" y1="895.7656" y2="937.1646"/><polygon fill="#181818" points="847.5,927.1646,851.5,937.1646,855.5,927.1646,851.5,931.1646" style="stroke:#181818;stroke-width:1.0;"/><text fill="#000000" font-family="sans-serif" font-size="11" lengthAdjust="spacing" textLength="14" x="855.5" y="917.0703">no</text><!--MD5=[e49ac57481c061b0b1a17c9624fb9e7c]
@startuml diagrama_de_atividade
start
:digite a ação a fazer;

if ( error ) then
  #pink:a locadora quebrou!;
  #OrangeRed:(error);
  kill
endif

repeat
switch ( resp? )

case ( resp == 0 )
  #palegreen:Cadastrar veiculo;
  :pede os parâmetros;
  :cria o veiculo;
  :armazena o carro;

case ( resp == 1 )
  #palegreen:Consultar disponibilidade de veículos;
  :cria duas listas;
  :(carros disponiveis e indeisponiveis);
  :pergunta qual mostrar;
  :mostra a lista;

case ( resp == 2 )
  #palegreen:Listar veículos por marca;
  :pede a marca do carro;
  :mostra a lista dos carros com a marca;

case ( resp == 3 )
  #palegreen:Listar veículos por modelo;
  :pede o modelo do carro;
  :mostra a lista dos carros com o modelo;

case ( resp == 4 )
  #palegreen:Listar veículos por ano;
  :pede o ano do carro;
  :mostra a lista dos carros com o ano;

case ( resp == 5 )
  #palegreen:Criar usuario;
  :pede o nome do cliente;
  :gera o id do cliente;
  :cria o cliente;
  :armazena o cliente;

case ( resp == 6 )
  #palegreen:alugar veiculo;
  :pede o carro a ser alugado;
  :pede o cliente que vai alugar;
  :pede as datas de aluguel (inicial e final);
  :gera a data de hoje pro calculo;
  :cria o aluguel;
  :adiciona ao historico do cliente;
  :muda o estado do carro pra indisponivel;
endswitch

repeat while (need more actions?) is (yes)
->no;
stop
@enduml

PlantUML version 1.2022.7(Mon Aug 22 14:01:30 BRT 2022)
(GPL source distribution)
Java Runtime: OpenJDK Runtime Environment
JVM: OpenJDK 64-Bit Server VM
Default Encoding: UTF-8
Language: pt
Country: BR
--></g></svg>