<?xml version="1.0" encoding="UTF-8" standalone="no"?><svg xmlns="http://www.w3.org/2000/svg" xmlns:xlink="http://www.w3.org/1999/xlink" contentStyleType="text/css" height="825px" preserveAspectRatio="none" style="width:610px;height:825px;background:#FFFFFF;" version="1.1" viewBox="0 0 610 825" width="610px" zoomAndPan="magnify"><defs/><g><!--MD5=[335f4d9be48430461c68bf6d6fdba145]
class App--><g id="elem_App"><rect codeLine="1" fill="#F1F1F1" height="178.375" id="App" rx="2.5" ry="2.5" style="stroke:#181818;stroke-width:0.5;" width="406" x="138.5" y="7"/><ellipse cx="323.75" cy="23" fill="#ADD1B2" rx="11" ry="11" style="stroke:#181818;stroke-width:1.0;"/><path d="M326.7188,28.6406 Q326.1406,28.9375 325.5,29.0781 Q324.8594,29.2344 324.1563,29.2344 Q321.6563,29.2344 320.3281,27.5938 Q319.0156,25.9375 319.0156,22.8125 Q319.0156,19.6875 320.3281,18.0313 Q321.6563,16.375 324.1563,16.375 Q324.8594,16.375 325.5,16.5313 Q326.1563,16.6875 326.7188,16.9844 L326.7188,19.7031 Q326.0938,19.125 325.5,18.8594 Q324.9063,18.5781 324.2813,18.5781 Q322.9375,18.5781 322.25,19.6563 Q321.5625,20.7188 321.5625,22.8125 Q321.5625,24.9063 322.25,25.9844 Q322.9375,27.0469 324.2813,27.0469 Q324.9063,27.0469 325.5,26.7813 Q326.0938,26.5 326.7188,25.9219 L326.7188,28.6406 Z " fill="#000000"/><text fill="#000000" font-family="sans-serif" font-size="14" lengthAdjust="spacing" textLength="27" x="344.25" y="27.8467">App</text><line style="stroke:#181818;stroke-width:0.5;" x1="139.5" x2="543.5" y1="39" y2="39"/><line style="stroke:#181818;stroke-width:0.5;" x1="139.5" x2="543.5" y1="47" y2="47"/><ellipse cx="149.5" cy="60.6484" fill="#84BE84" rx="3" ry="3" style="stroke:#038048;stroke-width:1.0;"/><text fill="#000000" font-family="sans-serif" font-size="14" lengthAdjust="spacing" textLength="194" x="158.5" y="63.9951">cadastrar_veiculo(self) Carro</text><ellipse cx="149.5" cy="76.9453" fill="#84BE84" rx="3" ry="3" style="stroke:#038048;stroke-width:1.0;"/><text fill="#000000" font-family="sans-serif" font-size="14" lengthAdjust="spacing" textLength="380" x="158.5" y="80.292">consultar_disponibilidade_de_veiculos(self, carList) void</text><ellipse cx="149.5" cy="93.2422" fill="#84BE84" rx="3" ry="3" style="stroke:#038048;stroke-width:1.0;"/><text fill="#000000" font-family="sans-serif" font-size="14" lengthAdjust="spacing" textLength="292" x="158.5" y="96.5889">listar_veiculos_por_marca(self, carList) void</text><ellipse cx="149.5" cy="109.5391" fill="#84BE84" rx="3" ry="3" style="stroke:#038048;stroke-width:1.0;"/><text fill="#000000" font-family="sans-serif" font-size="14" lengthAdjust="spacing" textLength="302" x="158.5" y="112.8857">listar_veiculos_por_modelo(self, carList) void</text><ellipse cx="149.5" cy="125.8359" fill="#84BE84" rx="3" ry="3" style="stroke:#038048;stroke-width:1.0;"/><text fill="#000000" font-family="sans-serif" font-size="14" lengthAdjust="spacing" textLength="276" x="158.5" y="129.1826">listar_veiculos_por_ano(self, carList) void</text><ellipse cx="149.5" cy="142.1328" fill="#84BE84" rx="3" ry="3" style="stroke:#038048;stroke-width:1.0;"/><text fill="#000000" font-family="sans-serif" font-size="14" lengthAdjust="spacing" textLength="212" x="158.5" y="145.4795">cadastrar_usuario(self) Usuario</text><ellipse cx="149.5" cy="158.4297" fill="#84BE84" rx="3" ry="3" style="stroke:#038048;stroke-width:1.0;"/><text fill="#000000" font-family="sans-serif" font-size="14" lengthAdjust="spacing" textLength="170" x="158.5" y="161.7764">alugar_veiculo(self) tuple</text><ellipse cx="149.5" cy="174.7266" fill="#84BE84" rx="3" ry="3" style="stroke:#038048;stroke-width:1.0;"/><text fill="#000000" font-family="sans-serif" font-size="14" lengthAdjust="spacing" textLength="133" x="158.5" y="178.0732">loadLists(self) tuple</text></g><!--MD5=[8505c5852735283b5a8424161266bb9f]
class Veiculo--><g id="elem_Veiculo"><rect codeLine="11" fill="#F1F1F1" height="145.7813" id="Veiculo" rx="2.5" ry="2.5" style="stroke:#181818;stroke-width:0.5;" width="191" x="7" y="458.5"/><ellipse cx="73.25" cy="474.5" fill="#ADD1B2" rx="11" ry="11" style="stroke:#181818;stroke-width:1.0;"/><path d="M76.2188,480.1406 Q75.6406,480.4375 75,480.5781 Q74.3594,480.7344 73.6563,480.7344 Q71.1563,480.7344 69.8281,479.0938 Q68.5156,477.4375 68.5156,474.3125 Q68.5156,471.1875 69.8281,469.5313 Q71.1563,467.875 73.6563,467.875 Q74.3594,467.875 75,468.0313 Q75.6563,468.1875 76.2188,468.4844 L76.2188,471.2031 Q75.5938,470.625 75,470.3594 Q74.4063,470.0781 73.7813,470.0781 Q72.4375,470.0781 71.75,471.1563 Q71.0625,472.2188 71.0625,474.3125 Q71.0625,476.4063 71.75,477.4844 Q72.4375,478.5469 73.7813,478.5469 Q74.4063,478.5469 75,478.2813 Q75.5938,478 76.2188,477.4219 L76.2188,480.1406 Z " fill="#000000"/><text fill="#000000" font-family="sans-serif" font-size="14" lengthAdjust="spacing" textLength="50" x="93.75" y="479.3467">Veiculo</text><line style="stroke:#181818;stroke-width:0.5;" x1="8" x2="197" y1="490.5" y2="490.5"/><rect fill="none" height="6" style="stroke:#C82930;stroke-width:1.0;" width="6" x="15" y="501.1484"/><text fill="#000000" font-family="sans-serif" font-size="14" lengthAdjust="spacing" textLength="86" x="27" y="507.4951">marca:string</text><rect fill="none" height="6" style="stroke:#C82930;stroke-width:1.0;" width="6" x="15" y="517.4453"/><text fill="#000000" font-family="sans-serif" font-size="14" lengthAdjust="spacing" textLength="96" x="27" y="523.792">modelo:string</text><rect fill="none" height="6" style="stroke:#C82930;stroke-width:1.0;" width="6" x="15" y="533.7422"/><text fill="#000000" font-family="sans-serif" font-size="14" lengthAdjust="spacing" textLength="70" x="27" y="540.0889">ano:string</text><rect fill="none" height="6" style="stroke:#C82930;stroke-width:1.0;" width="6" x="15" y="550.0391"/><text fill="#000000" font-family="sans-serif" font-size="14" lengthAdjust="spacing" textLength="92" x="27" y="556.3857">estado:string</text><rect fill="none" height="6" style="stroke:#C82930;stroke-width:1.0;" width="6" x="15" y="566.3359"/><text fill="#000000" font-family="sans-serif" font-size="14" lengthAdjust="spacing" textLength="130" x="27" y="572.6826">nomeClasse:string</text><line style="stroke:#181818;stroke-width:0.5;" x1="8" x2="197" y1="579.9844" y2="579.9844"/><ellipse cx="18" cy="593.6328" fill="#84BE84" rx="3" ry="3" style="stroke:#038048;stroke-width:1.0;"/><text fill="#000000" font-family="sans-serif" font-size="14" lengthAdjust="spacing" textLength="165" x="27" y="596.9795">set_estado(self) Veiculo</text></g><!--MD5=[35d938084ae5f6069e79016d06e14058]
class Carro--><g id="elem_Carro"><rect codeLine="20" fill="#F1F1F1" height="129.4844" id="Carro" rx="2.5" ry="2.5" style="stroke:#181818;stroke-width:0.5;" width="191" x="156" y="689"/><ellipse cx="228.75" cy="705" fill="#ADD1B2" rx="11" ry="11" style="stroke:#181818;stroke-width:1.0;"/><path d="M231.7188,710.6406 Q231.1406,710.9375 230.5,711.0781 Q229.8594,711.2344 229.1563,711.2344 Q226.6563,711.2344 225.3281,709.5938 Q224.0156,707.9375 224.0156,704.8125 Q224.0156,701.6875 225.3281,700.0313 Q226.6563,698.375 229.1563,698.375 Q229.8594,698.375 230.5,698.5313 Q231.1563,698.6875 231.7188,698.9844 L231.7188,701.7031 Q231.0938,701.125 230.5,700.8594 Q229.9063,700.5781 229.2813,700.5781 Q227.9375,700.5781 227.25,701.6563 Q226.5625,702.7188 226.5625,704.8125 Q226.5625,706.9063 227.25,707.9844 Q227.9375,709.0469 229.2813,709.0469 Q229.9063,709.0469 230.5,708.7813 Q231.0938,708.5 231.7188,707.9219 L231.7188,710.6406 Z " fill="#000000"/><text fill="#000000" font-family="sans-serif" font-size="14" lengthAdjust="spacing" textLength="37" x="249.25" y="709.8467">Carro</text><line style="stroke:#181818;stroke-width:0.5;" x1="157" x2="346" y1="721" y2="721"/><rect fill="none" height="6" style="stroke:#C82930;stroke-width:1.0;" width="6" x="164" y="731.6484"/><text fill="#000000" font-family="sans-serif" font-size="14" lengthAdjust="spacing" textLength="80" x="176" y="737.9951">placa:string</text><rect fill="none" height="6" style="stroke:#C82930;stroke-width:1.0;" width="6" x="164" y="747.9453"/><text fill="#000000" font-family="sans-serif" font-size="14" lengthAdjust="spacing" textLength="158" x="176" y="754.292">quilometragem:integer</text><rect fill="none" height="6" style="stroke:#C82930;stroke-width:1.0;" width="6" x="164" y="764.2422"/><text fill="#000000" font-family="sans-serif" font-size="14" lengthAdjust="spacing" textLength="143" x="176" y="770.5889">valorDaDiaria:integer</text><rect fill="none" height="6" style="stroke:#C82930;stroke-width:1.0;" width="6" x="164" y="780.5391"/><text fill="#000000" font-family="sans-serif" font-size="14" lengthAdjust="spacing" textLength="130" x="176" y="786.8857">nomeClasse:string</text><line style="stroke:#181818;stroke-width:0.5;" x1="157" x2="346" y1="794.1875" y2="794.1875"/><ellipse cx="167" cy="807.8359" fill="#84BE84" rx="3" ry="3" style="stroke:#038048;stroke-width:1.0;"/><text fill="#000000" font-family="sans-serif" font-size="14" lengthAdjust="spacing" textLength="165" x="176" y="811.1826">set_estado(self) Veiculo</text></g><!--MD5=[20a748d5ee336a9a91751b0a3d4f0beb]
class Cliente--><g id="elem_Cliente"><rect codeLine="28" fill="#F1F1F1" height="129.4844" id="Cliente" rx="2.5" ry="2.5" style="stroke:#181818;stroke-width:0.5;" width="253" x="305" y="245"/><ellipse cx="403.25" cy="261" fill="#ADD1B2" rx="11" ry="11" style="stroke:#181818;stroke-width:1.0;"/><path d="M406.2188,266.6406 Q405.6406,266.9375 405,267.0781 Q404.3594,267.2344 403.6563,267.2344 Q401.1563,267.2344 399.8281,265.5938 Q398.5156,263.9375 398.5156,260.8125 Q398.5156,257.6875 399.8281,256.0313 Q401.1563,254.375 403.6563,254.375 Q404.3594,254.375 405,254.5313 Q405.6563,254.6875 406.2188,254.9844 L406.2188,257.7031 Q405.5938,257.125 405,256.8594 Q404.4063,256.5781 403.7813,256.5781 Q402.4375,256.5781 401.75,257.6563 Q401.0625,258.7188 401.0625,260.8125 Q401.0625,262.9063 401.75,263.9844 Q402.4375,265.0469 403.7813,265.0469 Q404.4063,265.0469 405,264.7813 Q405.5938,264.5 406.2188,263.9219 L406.2188,266.6406 Z " fill="#000000"/><text fill="#000000" font-family="sans-serif" font-size="14" lengthAdjust="spacing" textLength="48" x="423.75" y="265.8467">Cliente</text><line style="stroke:#181818;stroke-width:0.5;" x1="306" x2="557" y1="277" y2="277"/><rect fill="none" height="6" style="stroke:#C82930;stroke-width:1.0;" width="6" x="313" y="287.6484"/><text fill="#000000" font-family="sans-serif" font-size="14" lengthAdjust="spacing" textLength="84" x="325" y="293.9951">nome:string</text><rect fill="none" height="6" style="stroke:#C82930;stroke-width:1.0;" width="6" x="313" y="303.9453"/><text fill="#000000" font-family="sans-serif" font-size="14" lengthAdjust="spacing" textLength="66" x="325" y="310.292">id:integer</text><rect fill="none" height="6" style="stroke:#C82930;stroke-width:1.0;" width="6" x="313" y="320.2422"/><text fill="#000000" font-family="sans-serif" font-size="14" lengthAdjust="spacing" textLength="227" x="325" y="326.5889">historicoDeCarrosAlugados:Array</text><rect fill="none" height="6" style="stroke:#C82930;stroke-width:1.0;" width="6" x="313" y="336.5391"/><text fill="#000000" font-family="sans-serif" font-size="14" lengthAdjust="spacing" textLength="130" x="325" y="342.8857">nomeClasse:string</text><line style="stroke:#181818;stroke-width:0.5;" x1="306" x2="557" y1="350.1875" y2="350.1875"/><ellipse cx="316" cy="363.8359" fill="#84BE84" rx="3" ry="3" style="stroke:#038048;stroke-width:1.0;"/><text fill="#000000" font-family="sans-serif" font-size="14" lengthAdjust="spacing" textLength="123" x="325" y="367.1826">__str__(self) string</text></g><!--MD5=[8743e69b8aa449f0ce99b3f24a88470c]
class Aluguel--><g id="elem_Aluguel"><rect codeLine="36" fill="#F1F1F1" height="194.6719" id="Aluguel" rx="2.5" ry="2.5" style="stroke:#181818;stroke-width:0.5;" width="156" x="353.5" y="434"/><ellipse cx="401.75" cy="450" fill="#ADD1B2" rx="11" ry="11" style="stroke:#181818;stroke-width:1.0;"/><path d="M404.7188,455.6406 Q404.1406,455.9375 403.5,456.0781 Q402.8594,456.2344 402.1563,456.2344 Q399.6563,456.2344 398.3281,454.5938 Q397.0156,452.9375 397.0156,449.8125 Q397.0156,446.6875 398.3281,445.0313 Q399.6563,443.375 402.1563,443.375 Q402.8594,443.375 403.5,443.5313 Q404.1563,443.6875 404.7188,443.9844 L404.7188,446.7031 Q404.0938,446.125 403.5,445.8594 Q402.9063,445.5781 402.2813,445.5781 Q400.9375,445.5781 400.25,446.6563 Q399.5625,447.7188 399.5625,449.8125 Q399.5625,451.9063 400.25,452.9844 Q400.9375,454.0469 402.2813,454.0469 Q402.9063,454.0469 403.5,453.7813 Q404.0938,453.5 404.7188,452.9219 L404.7188,455.6406 Z " fill="#000000"/><text fill="#000000" font-family="sans-serif" font-size="14" lengthAdjust="spacing" textLength="51" x="422.25" y="454.8467">Aluguel</text><line style="stroke:#181818;stroke-width:0.5;" x1="354.5" x2="508.5" y1="466" y2="466"/><rect fill="none" height="6" style="stroke:#C82930;stroke-width:1.0;" width="6" x="361.5" y="476.6484"/><text fill="#000000" font-family="sans-serif" font-size="14" lengthAdjust="spacing" textLength="84" x="373.5" y="482.9951">user:Cliente</text><rect fill="none" height="6" style="stroke:#C82930;stroke-width:1.0;" width="6" x="361.5" y="492.9453"/><text fill="#000000" font-family="sans-serif" font-size="14" lengthAdjust="spacing" textLength="63" x="373.5" y="499.292">car:Carro</text><rect fill="none" height="6" style="stroke:#C82930;stroke-width:1.0;" width="6" x="361.5" y="509.2422"/><text fill="#000000" font-family="sans-serif" font-size="14" lengthAdjust="spacing" textLength="111" x="373.5" y="515.5889">dataIni:datetime</text><rect fill="none" height="6" style="stroke:#C82930;stroke-width:1.0;" width="6" x="361.5" y="525.5391"/><text fill="#000000" font-family="sans-serif" font-size="14" lengthAdjust="spacing" textLength="120" x="373.5" y="531.8857">dataFim:datetime</text><rect fill="none" height="6" style="stroke:#C82930;stroke-width:1.0;" width="6" x="361.5" y="541.8359"/><text fill="#000000" font-family="sans-serif" font-size="14" lengthAdjust="spacing" textLength="78" x="373.5" y="548.1826">hj:datetime</text><rect fill="none" height="6" style="stroke:#C82930;stroke-width:1.0;" width="6" x="361.5" y="558.1328"/><text fill="#000000" font-family="sans-serif" font-size="14" lengthAdjust="spacing" textLength="90" x="373.5" y="564.4795">diaria:integer</text><rect fill="none" height="6" style="stroke:#C82930;stroke-width:1.0;" width="6" x="361.5" y="574.4297"/><text fill="#000000" font-family="sans-serif" font-size="14" lengthAdjust="spacing" textLength="102" x="373.5" y="580.7764">qtDays:integer</text><rect fill="none" height="6" style="stroke:#C82930;stroke-width:1.0;" width="6" x="361.5" y="590.7266"/><text fill="#000000" font-family="sans-serif" font-size="14" lengthAdjust="spacing" textLength="82" x="373.5" y="597.0732">taxa:integer</text><rect fill="none" height="6" style="stroke:#C82930;stroke-width:1.0;" width="6" x="361.5" y="607.0234"/><text fill="#000000" font-family="sans-serif" font-size="14" lengthAdjust="spacing" textLength="130" x="373.5" y="613.3701">nomeClasse:string</text><line style="stroke:#181818;stroke-width:0.5;" x1="354.5" x2="508.5" y1="620.6719" y2="620.6719"/></g><!--MD5=[68da1c4cf6bd09977d8e72e8d2eb943a]
reverse link Veiculo to Carro--><g id="link_Veiculo_Carro"><path codeLine="47" d="M162.54,621.15 C177.88,643.8 194.07,667.71 208.37,688.83 " fill="none" id="Veiculo-backto-Carro" style="stroke:#181818;stroke-width:1.0;"/><polygon fill="none" points="156.71,625.02,151.29,604.54,168.3,617.17,156.71,625.02" style="stroke:#181818;stroke-width:1.0;"/></g><!--MD5=[cea9d1efac28502ec7d06b34e88d101e]
reverse link App to Veiculo--><g id="link_App_Veiculo"><path codeLine="48" d="M258.65,195.57 C246.82,211.61 235.34,228.42 225.5,245 C184.58,313.91 149.75,398.95 127.71,458.21 " fill="none" id="App-backto-Veiculo" style="stroke:#181818;stroke-width:1.0;"/><polygon fill="none" points="266.46,185.14,259.66,187.54,259.26,194.74,266.06,192.34,266.46,185.14" style="stroke:#181818;stroke-width:1.0;"/></g><!--MD5=[fc3b7e39896a5f1912a3bcc0758931ee]
reverse link App to Carro--><g id="link_App_Carro"><path codeLine="49" d="M300.61,197.49 C295.46,213.19 290.83,229.38 287.5,245 C253.98,402 249.91,591.87 250.37,688.81 " fill="none" id="App-backto-Carro" style="stroke:#181818;stroke-width:1.0;"/><polygon fill="none" points="304.84,185.04,299.1219,189.4335,300.9781,196.4016,306.6963,192.0081,304.84,185.04" style="stroke:#181818;stroke-width:1.0;"/></g><!--MD5=[6e4e413f82c1a707aa2ab48218cabe24]
reverse link App to Cliente--><g id="link_App_Cliente"><path codeLine="50" d="M384.25,197.47 C391.13,213.64 398.09,229.98 404.46,244.96 " fill="none" id="App-backto-Cliente" style="stroke:#181818;stroke-width:1.0;"/><polygon fill="none" points="379.02,185.16,377.6947,192.2483,383.7279,196.1979,385.0533,189.1096,379.02,185.16" style="stroke:#181818;stroke-width:1.0;"/></g><!--MD5=[63efac6e85dfcbdce5eafcbefd8f54c3]
reverse link App to Aluguel--><g id="link_App_Aluguel"><path codeLine="51" d="M534.49,193.72 C550.72,208.78 564.94,225.82 575.5,245 C603.16,295.22 596.33,320.59 575.5,374 C561.68,409.43 535.67,441.68 509.52,467.58 " fill="none" id="App-backto-Aluguel" style="stroke:#181818;stroke-width:1.0;"/><polygon fill="none" points="524.71,185.08,526.5554,192.051,533.7,193.0286,531.8545,186.0576,524.71,185.08" style="stroke:#181818;stroke-width:1.0;"/></g><!--MD5=[b6e79d36fdbf6a33c636dbba9ec59c7b]
reverse link Aluguel to Carro--><g id="link_Aluguel_Carro"><path codeLine="52" d="M345.03,638.18 C330.9,655.46 316.64,672.88 303.67,688.74 " fill="none" id="Aluguel-backto-Carro" style="stroke:#181818;stroke-width:1.0;"/><polygon fill="#181818" points="353.33,628.04,346.4347,630.1508,345.7311,637.3275,352.6264,635.2167,353.33,628.04" style="stroke:#181818;stroke-width:1.0;"/><text fill="#000000" font-family="sans-serif" font-size="13" lengthAdjust="spacing" textLength="8" x="337.4982" y="633.6155">1</text></g><!--MD5=[75075652c60ec341ee4429aadbd84790]
reverse link Aluguel to Cliente--><g id="link_Aluguel_Cliente"><path codeLine="53" d="M445,420.51 C445,404.61 444.62,388.71 443.87,374.13 " fill="none" id="Aluguel-backto-Cliente" style="stroke:#181818;stroke-width:1.0;"/><polygon fill="#181818" points="444.91,433.84,448.9495,427.8665,444.9891,421.8403,440.9496,427.8138,444.91,433.84" style="stroke:#181818;stroke-width:1.0;"/><text fill="#000000" font-family="sans-serif" font-size="13" lengthAdjust="spacing" textLength="8" x="437.6305" y="422.8732">1</text></g><!--MD5=[af12bb21d72aea160ab635fc80d4e2c7]
reverse link Cliente to Aluguel--><g id="link_Cliente_Aluguel"><path codeLine="54" d="M419.27,387.57 C418.78,402.52 418.64,418.36 418.83,433.84 " fill="none" id="Cliente-backto-Aluguel" style="stroke:#181818;stroke-width:1.0;"/><polygon fill="none" points="419.82,374.13,415.5795,379.9625,419.3325,386.1201,423.5729,380.2875,419.82,374.13" style="stroke:#181818;stroke-width:1.0;"/></g><!--MD5=[5e907be5b203637c26d4f6a46b1389b2]
@startuml diagrama_de_classes
    class App {
        +cadastrar_veiculo(self) Carro
        +consultar_disponibilidade_de_veiculos(self, carList) void
        +listar_veiculos_por_marca(self, carList) void
        +listar_veiculos_por_modelo(self, carList) void
        +listar_veiculos_por_ano(self, carList) void
        +cadastrar_usuario(self) Usuario
        +alugar_veiculo(self) tuple
        +loadLists(self) tuple
    }
    class Veiculo {
        - marca:string 
        - modelo:string
        - ano:string
        - estado:string
        - nomeClasse:string

        +set_estado(self) Veiculo
    }
    class Carro{
        - placa:string 
        - quilometragem:integer
        - valorDaDiaria:integer
        - nomeClasse:string

        +set_estado(self) Veiculo
    }
    class Cliente{
        - nome:string
        - id:integer
        - historicoDeCarrosAlugados:Array
        - nomeClasse:string

        +__str__(self) string
    }
    class Aluguel{
        - user:Cliente
        - car:Carro
        - dataIni:datetime
        - dataFim:datetime
        - hj:datetime
        - diaria:integer
        - qtDays:integer
        - taxa:integer
        - nomeClasse:string
    }
    Veiculo <|- - Carro
    App o- - Veiculo
    App o- - Carro
    App o- - Cliente
    App o- - Aluguel
    Aluguel "1" *- - Carro
    Aluguel "1" *- - Cliente
    Cliente o- - Aluguel
@enduml

PlantUML version 1.2022.7(Mon Aug 22 14:01:30 BRT 2022)
(GPL source distribution)
Java Runtime: OpenJDK Runtime Environment
JVM: OpenJDK 64-Bit Server VM
Default Encoding: UTF-8
Language: pt
Country: BR
--></g></svg>