<?xml version="1.0" encoding="UTF-8" standalone="no"?><svg xmlns="http://www.w3.org/2000/svg" xmlns:xlink="http://www.w3.org/1999/xlink" contentStyleType="text/css" height="578px" preserveAspectRatio="none" style="width:832px;height:578px;background:#FFFFFF;" version="1.1" viewBox="0 0 832 578" width="832px" zoomAndPan="magnify"><defs/><g><!--MD5=[d5ac3844f66b12d9e08170e47495e096]
cluster app--><g id="cluster_app"><rect fill="none" height="565" rx="2.5" ry="2.5" style="stroke:#181818;stroke-width:1.0;" width="717" x="109" y="7"/><text fill="#000000" font-family="sans-serif" font-size="14" font-weight="bold" lengthAdjust="spacing" textLength="29" x="453" y="21.9951">app</text></g><g id="elem_solicitar_parametros"><ellipse cx="639.0368" cy="128.8074" fill="#F1F1F1" rx="87.0368" ry="19.8074" style="stroke:#181818;stroke-width:0.5;"/><text fill="#000000" font-family="sans-serif" font-size="14" lengthAdjust="spacing" textLength="135" x="571.5368" y="131.654">solicitar par창metros</text></g><g id="elem_show_carros_disponiveis_ou_indisponiveis"><ellipse cx="638.7982" cy="284.8596" fill="#F1F1F1" rx="162.2982" ry="34.8596" style="stroke:#181818;stroke-width:0.5;"/><text fill="#000000" font-family="sans-serif" font-size="14" lengthAdjust="spacing" textLength="296" x="490.7982" y="287.7063">mostrar carros disponiveis ou indisponiveis</text></g><g id="elem_showListCar"><ellipse cx="639.0147" cy="451.1029" fill="#F1F1F1" rx="171.0147" ry="36.6029" style="stroke:#181818;stroke-width:0.5;"/><text fill="#000000" font-family="sans-serif" font-size="14" lengthAdjust="spacing" textLength="314" x="482.0147" y="453.9496">mostrar lista de carros com o par창metro dado</text></g><g id="elem_cadastrar_user"><ellipse cx="266.6963" cy="128.9393" fill="#98FB98" rx="80.1963" ry="18.4393" style="stroke:#000000;stroke-width:2.0;"/><text fill="#000000" font-family="sans-serif" font-size="14" lengthAdjust="spacing" textLength="119" x="205.6039" y="132.2979">cadastrar usuario</text></g><g id="elem_cadastrar_veicle"><ellipse cx="266.4652" cy="201.193" fill="#98FB98" rx="78.9652" ry="18.193" style="stroke:#000000;stroke-width:2.0;"/><text fill="#000000" font-family="sans-serif" font-size="14" lengthAdjust="spacing" textLength="116" x="206.4" y="204.6886">cadastrar veiculo</text></g><g id="elem_aluguel_veicle"><ellipse cx="266.4333" cy="58.9867" fill="#98FB98" rx="70.4333" ry="16.4867" style="stroke:#000000;stroke-width:2.0;"/><text fill="#000000" font-family="sans-serif" font-size="14" lengthAdjust="spacing" textLength="94" x="216.4333" y="62.7342">alugar veiculo</text></g><g id="elem_c_d_veicle"><ellipse cx="266.6224" cy="285.2245" fill="#EEE8AA" rx="141.6224" ry="30.7245" style="stroke:#000000;stroke-width:2.0;"/><text fill="#000000" font-family="sans-serif" font-size="14" lengthAdjust="spacing" textLength="253" x="140.1224" y="288.0712">consultar disponibilidade de veiculos</text></g><g id="elem_l_v_marca"><ellipse cx="266.4278" cy="450.9856" fill="#EEE8AA" rx="100.4278" ry="22.4856" style="stroke:#000000;stroke-width:2.0;"/><text fill="#000000" font-family="sans-serif" font-size="14" lengthAdjust="spacing" textLength="165" x="183.9278" y="453.8322">listar veiculos por marca</text></g><g id="elem_l_v_model"><ellipse cx="266.4911" cy="531.8982" fill="#EEE8AA" rx="104.9911" ry="23.3982" style="stroke:#000000;stroke-width:2.0;"/><text fill="#000000" font-family="sans-serif" font-size="14" lengthAdjust="spacing" textLength="175" x="178.9911" y="534.7449">listar veiculos por modelo</text></g><g id="elem_l_v_ano"><ellipse cx="266.7229" cy="372.0446" fill="#EEE8AA" rx="93.2229" ry="21.0446" style="stroke:#000000;stroke-width:2.0;"/><text fill="#000000" font-family="sans-serif" font-size="14" lengthAdjust="spacing" textLength="149" x="192.2229" y="374.8913">listar veiculos por ano</text></g><!--MD5=[189cfeb145079988af44cfffea38c4a9]
entity locadora--><g id="elem_locadora"><ellipse cx="35.5" cy="29.5" fill="#F1F1F1" rx="8" ry="8" style="stroke:#181818;stroke-width:0.5;"/><path d="M35.5,37.5 L35.5,64.5 M22.5,45.5 L48.5,45.5 M35.5,64.5 L22.5,79.5 M35.5,64.5 L48.5,79.5 " fill="none" style="stroke:#181818;stroke-width:0.5;"/><text fill="#000000" font-family="sans-serif" font-size="14" lengthAdjust="spacing" textLength="59" x="6" y="93.9951">locadora</text></g><!--MD5=[4a65e84059005d12693a083370a06717]
entity client--><g id="elem_client"><ellipse cx="35.5" cy="255.5" fill="#F1F1F1" rx="8" ry="8" style="stroke:#181818;stroke-width:0.5;"/><path d="M35.5,263.5 L35.5,290.5 M22.5,271.5 L48.5,271.5 M35.5,290.5 L22.5,305.5 M35.5,290.5 L48.5,305.5 " fill="none" style="stroke:#181818;stroke-width:0.5;"/><text fill="#000000" font-family="sans-serif" font-size="14" lengthAdjust="spacing" textLength="37" x="17" y="319.9951">client</text></g><!--MD5=[d9d6dc47e77e1a1805e884de7faf0ff1]
link client to cadastrar_veicle--><g id="link_client_cadastrar_veicle"><path d="M54.07,268.67 C66.35,258.12 83.6,244.93 101,237 C129.29,224.11 162.47,215.71 191.58,210.31 " fill="none" id="client-to-cadastrar_veicle" style="stroke:#181818;stroke-width:1.0;"/><polygon fill="#181818" points="196.59,209.4,187.0167,207.0867,191.6718,210.3007,188.4578,214.9559,196.59,209.4" style="stroke:#181818;stroke-width:1.0;"/></g><!--MD5=[fde84f36fdf1216044736d8e8de6bf08]
link client to c_d_veicle--><g id="link_client_c_d_veicle"><path d="M54.09,285 C69.46,285 93.38,285 119.68,285 " fill="none" id="client-to-c_d_veicle" style="stroke:#181818;stroke-width:1.0;"/><polygon fill="#181818" points="124.98,285,115.98,281,119.98,285,115.98,289,124.98,285" style="stroke:#181818;stroke-width:1.0;"/></g><!--MD5=[b67f521ca731a25b31cd74e4eb2da69a]
link client to l_v_marca--><g id="link_client_l_v_marca"><path d="M46.8,323.02 C56.34,351.1 73.33,388.11 101,410 C120.29,425.26 144.51,434.93 168.39,441.02 " fill="none" id="client-to-l_v_marca" style="stroke:#181818;stroke-width:1.0;"/><polygon fill="#181818" points="173.48,442.27,165.7021,436.2281,168.6259,441.0708,163.7833,443.9946,173.48,442.27" style="stroke:#181818;stroke-width:1.0;"/></g><!--MD5=[39e4442f1ea8fd667463f5d1adbbc432]
link client to l_v_model--><g id="link_client_l_v_model"><path d="M37.66,323.11 C41.18,369.45 54.23,446.92 101,491 C117.73,506.77 139.56,516.73 161.82,522.96 " fill="none" id="client-to-l_v_model" style="stroke:#181818;stroke-width:1.0;"/><polygon fill="#181818" points="166.88,524.31,159.2294,518.1078,162.0519,523.0101,157.1496,525.8327,166.88,524.31" style="stroke:#181818;stroke-width:1.0;"/></g><!--MD5=[6834bc89b7e2117a214a058638e7a266]
link client to l_v_ano--><g id="link_client_l_v_ano"><path d="M54.12,301.23 C66.41,311.74 83.67,324.92 101,333 C126.67,344.97 156.36,353.45 183.39,359.38 " fill="none" id="client-to-l_v_ano" style="stroke:#181818;stroke-width:1.0;"/><polygon fill="#181818" points="188.41,360.46,180.4595,354.6471,183.5231,359.4026,178.7676,362.4662,188.41,360.46" style="stroke:#181818;stroke-width:1.0;"/></g><!--MD5=[8e9b21f5df1bc2e3e66e3ace38f00855]
link client to cadastrar_user--><g id="link_client_cadastrar_user"><path d="M47.53,246.84 C57.28,219.94 74.19,185.23 101,165 C124.29,147.43 154.41,138.08 182.51,133.22 " fill="none" id="client-to-cadastrar_user" style="stroke:#181818;stroke-width:1.0;"/><polygon fill="#181818" points="187.73,132.37,178.1983,129.8906,182.7969,133.185,179.5024,137.7836,187.73,132.37" style="stroke:#181818;stroke-width:1.0;"/></g><!--MD5=[0c6501c99ef03530ad6eacb3e76d1b8a]
link client to aluguel_veicle--><g id="link_client_aluguel_veicle"><path d="M38.41,246.82 C42.75,203.05 56.66,132.3 101,93 C125.34,71.42 159.7,62.19 190.73,58.65 " fill="none" id="client-to-aluguel_veicle" style="stroke:#181818;stroke-width:1.0;"/><polygon fill="#181818" points="196.08,58.09,186.7162,55.0373,191.1065,58.6045,187.5394,62.9949,196.08,58.09" style="stroke:#181818;stroke-width:1.0;"/></g><!--MD5=[635a37fb94166a030c2449b305354db1]
link locadora to aluguel_veicle--><g id="link_locadora_aluguel_veicle"><path d="M65.04,59 C96.26,59 147.58,59 190.48,59 " fill="none" id="locadora-to-aluguel_veicle" style="stroke:#181818;stroke-width:1.0;"/><polygon fill="#181818" points="195.67,59,186.67,55,190.67,59,186.67,63,195.67,59" style="stroke:#181818;stroke-width:1.0;"/></g><!--MD5=[f69ef110173b3bf001f04a59c4a08cda]
link cadastrar_user to solicitar_parametros--><g id="link_cadastrar_user_solicitar_parametros"><path d="M346.53,129 C405.23,129 485.44,129 546.85,129 " fill="none" id="cadastrar_user-to-solicitar_parametros" style="stroke:#008000;stroke-width:1.0;stroke-dasharray:7.0,7.0;"/><polygon fill="#008000" points="551.98,129,542.98,125,546.98,129,542.98,133,551.98,129" style="stroke:#008000;stroke-width:1.0;"/></g><!--MD5=[0e2ded6a7eef3529600e5b88d2f01083]
link aluguel_veicle to solicitar_parametros--><g id="link_aluguel_veicle_solicitar_parametros"><path d="M321.77,69.25 C386.45,81.47 494.73,101.93 566.27,115.45 " fill="none" id="aluguel_veicle-to-solicitar_parametros" style="stroke:#008000;stroke-width:1.0;stroke-dasharray:7.0,7.0;"/><polygon fill="#008000" points="571.35,116.41,563.2492,110.8085,566.4369,115.4817,561.7638,118.6694,571.35,116.41" style="stroke:#008000;stroke-width:1.0;"/></g><!--MD5=[0972e3e7f0e90bcc09da79b9d0210501]
link cadastrar_veicle to solicitar_parametros--><g id="link_cadastrar_veicle_solicitar_parametros"><path d="M327.03,189.43 C392.45,176.72 497.48,156.31 567.11,142.78 " fill="none" id="cadastrar_veicle-to-solicitar_parametros" style="stroke:#008000;stroke-width:1.0;stroke-dasharray:7.0,7.0;"/><polygon fill="#008000" points="572.06,141.81,562.4675,139.5775,567.1496,142.7521,563.9749,147.4342,572.06,141.81" style="stroke:#008000;stroke-width:1.0;"/></g><!--MD5=[5f84ba82da224be8b1e2bb0cc325e54a]
link c_d_veicle to show_carros_disponiveis_ou_indisponiveis--><g id="link_c_d_veicle_show_carros_disponiveis_ou_indisponiveis"><path d="M408.1,285 C428.76,285 450.2,285 471.32,285 " fill="none" id="c_d_veicle-to-show_carros_disponiveis_ou_indisponiveis" style="stroke:#008000;stroke-width:1.0;stroke-dasharray:7.0,7.0;"/><polygon fill="#008000" points="476.39,285,467.39,281,471.39,285,467.39,289,476.39,285" style="stroke:#008000;stroke-width:1.0;"/></g><!--MD5=[d3550ca6288880ebdb458f2fab0e4348]
link l_v_marca to showListCar--><g id="link_l_v_marca_showListCar"><path d="M367.27,451 C396.67,451 429.75,451 462.42,451 " fill="none" id="l_v_marca-to-showListCar" style="stroke:#008000;stroke-width:1.0;stroke-dasharray:7.0,7.0;"/><polygon fill="#008000" points="467.66,451,458.66,447,462.66,451,458.66,455,467.66,451" style="stroke:#008000;stroke-width:1.0;"/></g><!--MD5=[f56004af704210ec35876cd19b3f8f72]
link l_v_model to showListCar--><g id="link_l_v_model_showListCar"><path d="M342.48,515.61 C391.63,504.86 457.08,490.55 513.89,478.13 " fill="none" id="l_v_model-to-showListCar" style="stroke:#008000;stroke-width:1.0;stroke-dasharray:7.0,7.0;"/><polygon fill="#008000" points="519.01,477.01,509.3621,475.0307,514.1261,478.081,511.0757,482.845,519.01,477.01" style="stroke:#008000;stroke-width:1.0;"/></g><!--MD5=[805755e968beb8db1ac6dbd61dcc0bca]
link l_v_ano to showListCar--><g id="link_l_v_ano_showListCar"><path d="M334.59,386.31 C384.09,396.86 452.88,411.53 512.46,424.23 " fill="none" id="l_v_ano-to-showListCar" style="stroke:#008000;stroke-width:1.0;stroke-dasharray:7.0,7.0;"/><polygon fill="#008000" points="517.46,425.3,509.4898,419.5141,512.5695,424.2592,507.8245,427.3389,517.46,425.3" style="stroke:#008000;stroke-width:1.0;"/></g><!--MD5=[a4c8227039cb1728ba9328539f31a316]
@startuml diagrama_de_caso_de_uso
left to right direction

actor locadora
actor client

rectangle app{
    
    usecase "solicitar par창metros" as solicitar_parametros 

    usecase "mostrar carros disponiveis ou indisponiveis" as show_carros_disponiveis_ou_indisponiveis

    usecase "mostrar lista de carros com o par창metro dado" as showListCar

    usecase "cadastrar usuario" as cadastrar_user #palegreen;line:black;line.bold;text:black

    usecase "cadastrar veiculo" as cadastrar_veicle #palegreen;line:black;line.bold;text:black

    usecase "alugar veiculo" as aluguel_veicle #palegreen;line:black;line.bold;text:black

    usecase "consultar disponibilidade de veiculos" as c_d_veicle #PaleGoldenRod;line:black;line.bold;text:black

    usecase "listar veiculos por marca" as l_v_marca #PaleGoldenRod;line:black;line.bold;text:black

    usecase "listar veiculos por modelo" as l_v_model #PaleGoldenRod;line:black;line.bold;text:black

    usecase "listar veiculos por ano" as l_v_ano #PaleGoldenRod;line:black;line.bold;text:black

}

client - -> cadastrar_veicle
client - -> c_d_veicle
client - -> l_v_marca
client - -> l_v_model
client - -> l_v_ano
client - -> cadastrar_user
client - -> aluguel_veicle
locadora - -> aluguel_veicle

cadastrar_user - -> solicitar_parametros #green;line.dashed;text:green

aluguel_veicle - -> solicitar_parametros #green;line.dashed;text:green

cadastrar_veicle - -> solicitar_parametros #green;line.dashed;text:green

c_d_veicle - -> show_carros_disponiveis_ou_indisponiveis #green;line.dashed;text:green

l_v_marca - -> showListCar #green;line.dashed;text:green
l_v_model - -> showListCar #green;line.dashed;text:green
l_v_ano - -> showListCar #green;line.dashed;text:green

@enduml

PlantUML version 1.2022.7(Mon Aug 22 14:01:30 BRT 2022)
(GPL source distribution)
Java Runtime: OpenJDK Runtime Environment
JVM: OpenJDK 64-Bit Server VM
Default Encoding: UTF-8
Language: pt
Country: BR
--></g></svg>